<svg width="1200" height="800" viewBox="0 0 1200 800" fill="none" xmlns="http://www.w3.org/2000/svg">
  <rect width="1200" height="800" rx="48" fill="#F6F2EE"/>
  <rect x="70" y="70" width="1060" height="90" rx="24" fill="#FFFFFF" stroke="#E5E0DA"/>
  <text x="110" y="125" fill="#191919" font-family="Inter, system-ui, -apple-system, Segoe UI, sans-serif" font-size="28" font-weight="600">Marketplace</text>

  <rect x="70" y="190" width="1060" height="520" rx="28" fill="#FFFFFF" stroke="#E5E0DA"/>
  <text x="110" y="235" fill="#6B5F55" font-family="Inter, system-ui, -apple-system, Segoe UI, sans-serif" font-size="14" letter-spacing="4">LISTINGS</text>

  <g fill="#FFFFFF" stroke="#E5E0DA">
    <rect x="110" y="260" width="320" height="400" rx="26"/>
    <rect x="440" y="260" width="320" height="400" rx="26"/>
    <rect x="770" y="260" width="320" height="400" rx="26"/>
  </g>
  <g>
  <rect x="130" y="280" width="280" height="150" rx="20" fill="#F7F6F4" stroke="#E5E0DA"/>
  <rect x="460" y="280" width="280" height="150" rx="20" fill="#F7F6F4" stroke="#E5E0DA"/>
  <rect x="790" y="280" width="280" height="150" rx="20" fill="#F7F6F4" stroke="#E5E0DA"/>
  <text x="160" y="350" fill="#6B5F55" font-family="Inter, system-ui, -apple-system, Segoe UI, sans-serif" font-size="12">Coach: Jordan Lee</text>
  <text x="490" y="350" fill="#6B5F55" font-family="Inter, system-ui, -apple-system, Segoe UI, sans-serif" font-size="12">Coach: Kenzie Tran</text>
  <text x="820" y="350" fill="#6B5F55" font-family="Inter, system-ui, -apple-system, Segoe UI, sans-serif" font-size="12">Coach: Samira Ortiz</text>
  </g>
  <rect x="150" y="460" width="240" height="40" rx="16" fill="#FFFFFF" stroke="#E5E0DA"/>
  <rect x="480" y="460" width="240" height="40" rx="16" fill="#FFFFFF" stroke="#E5E0DA"/>
  <rect x="810" y="460" width="240" height="40" rx="16" fill="#FFFFFF" stroke="#E5E0DA"/>
  <rect x="150" y="520" width="120" height="36" rx="14" fill="#FFFFFF" stroke="#E5E0DA"/>
  <rect x="290" y="520" width="100" height="36" rx="14" fill="#B80F0A"/>
  <rect x="480" y="520" width="120" height="36" rx="14" fill="#FFFFFF" stroke="#E5E0DA"/>
  <rect x="620" y="520" width="100" height="36" rx="14" fill="#B80F0A"/>
  <rect x="810" y="520" width="120" height="36" rx="14" fill="#FFFFFF" stroke="#E5E0DA"/>
  <rect x="950" y="520" width="100" height="36" rx="14" fill="#B80F0A"/>
  <text x="170" y="545" fill="#191919" font-family="Inter, system-ui, -apple-system, Segoe UI, sans-serif" font-size="12" font-weight="600">Details</text>
  <text x="315" y="545" fill="#FFFFFF" font-family="Inter, system-ui, -apple-system, Segoe UI, sans-serif" font-size="12" font-weight="600">Book</text>
  <text x="500" y="545" fill="#191919" font-family="Inter, system-ui, -apple-system, Segoe UI, sans-serif" font-size="12" font-weight="600">Details</text>
  <text x="645" y="545" fill="#FFFFFF" font-family="Inter, system-ui, -apple-system, Segoe UI, sans-serif" font-size="12" font-weight="600">Book</text>
  <text x="830" y="545" fill="#191919" font-family="Inter, system-ui, -apple-system, Segoe UI, sans-serif" font-size="12" font-weight="600">Details</text>
  <text x="975" y="545" fill="#FFFFFF" font-family="Inter, system-ui, -apple-system, Segoe UI, sans-serif" font-size="12" font-weight="600">Book</text>
  <text x="170" y="485" fill="#191919" font-family="Inter, system-ui, -apple-system, Segoe UI, sans-serif" font-size="14" font-weight="600">Speed Burst Plan</text>
  <text x="170" y="505" fill="#6B5F55" font-family="Inter, system-ui, -apple-system, Segoe UI, sans-serif" font-size="12">$149 • Digital</text>
  <text x="500" y="485" fill="#191919" font-family="Inter, system-ui, -apple-system, Segoe UI, sans-serif" font-size="14" font-weight="600">Strength Circuit</text>
  <text x="500" y="505" fill="#6B5F55" font-family="Inter, system-ui, -apple-system, Segoe UI, sans-serif" font-size="12">$99 • Digital</text>
  <text x="830" y="485" fill="#191919" font-family="Inter, system-ui, -apple-system, Segoe UI, sans-serif" font-size="14" font-weight="600">Weekend Clinic</text>
  <text x="830" y="505" fill="#6B5F55" font-family="Inter, system-ui, -apple-system, Segoe UI, sans-serif" font-size="12">$65 • Physical</text>
</svg>
