<svg width="1200" height="800" viewBox="0 0 1200 800" fill="none" xmlns="http://www.w3.org/2000/svg">
  <rect width="1200" height="800" rx="48" fill="#F6F2EE"/>
  <rect x="70" y="70" width="1060" height="90" rx="24" fill="#FFFFFF" stroke="#E5E0DA"/>
  <text x="110" y="125" fill="#191919" font-family="Inter, system-ui, -apple-system, Segoe UI, sans-serif" font-size="28" font-weight="600">Messaging</text>

  <rect x="70" y="190" width="420" height="520" rx="28" fill="#FFFFFF" stroke="#E5E0DA"/>
  <text x="110" y="235" fill="#6B5F55" font-family="Inter, system-ui, -apple-system, Segoe UI, sans-serif" font-size="14" letter-spacing="4">INBOX</text>
  <rect x="110" y="260" width="340" height="44" rx="16" fill="#FFFFFF" stroke="#E5E0DA"/>
  <rect x="110" y="320" width="340" height="70" rx="20" fill="#F7F6F4" stroke="#E5E0DA"/>
  <rect x="110" y="405" width="340" height="70" rx="20" fill="#FFFFFF" stroke="#E5E0DA"/>
  <rect x="110" y="490" width="340" height="70" rx="20" fill="#FFFFFF" stroke="#E5E0DA"/>
  <text x="130" y="288" fill="#6B5F55" font-family="Inter, system-ui, -apple-system, Segoe UI, sans-serif" font-size="11">Search by name</text>
  <text x="130" y="355" fill="#191919" font-family="Inter, system-ui, -apple-system, Segoe UI, sans-serif" font-size="14" font-weight="600">Maya Lopez</text>
  <text x="130" y="374" fill="#6B5F55" font-family="Inter, system-ui, -apple-system, Segoe UI, sans-serif" font-size="11">Can we move Friday?</text>
  <text x="130" y="440" fill="#191919" font-family="Inter, system-ui, -apple-system, Segoe UI, sans-serif" font-size="14" font-weight="600">Team Wolves</text>
  <text x="130" y="459" fill="#6B5F55" font-family="Inter, system-ui, -apple-system, Segoe UI, sans-serif" font-size="11">Practice footage shared</text>
  <text x="130" y="525" fill="#191919" font-family="Inter, system-ui, -apple-system, Segoe UI, sans-serif" font-size="14" font-weight="600">Parents: Tarek</text>
  <text x="130" y="544" fill="#6B5F55" font-family="Inter, system-ui, -apple-system, Segoe UI, sans-serif" font-size="11">Thanks for the recap</text>

  <rect x="520" y="190" width="610" height="520" rx="28" fill="#FFFFFF" stroke="#E5E0DA"/>
  <text x="560" y="235" fill="#6B5F55" font-family="Inter, system-ui, -apple-system, Segoe UI, sans-serif" font-size="14" letter-spacing="4">THREAD</text>
  <rect x="560" y="260" width="520" height="150" rx="22" fill="#F7F6F4" stroke="#E5E0DA"/>
  <rect x="560" y="430" width="520" height="100" rx="22" fill="#FFFFFF" stroke="#E5E0DA"/>
  <rect x="560" y="550" width="360" height="50" rx="18" fill="#FFFFFF" stroke="#E5E0DA"/>
  <rect x="940" y="550" width="140" height="50" rx="18" fill="#B80F0A"/>
  <text x="975" y="582" fill="#FFFFFF" font-family="Inter, system-ui, -apple-system, Segoe UI, sans-serif" font-size="16" font-weight="600">Send</text>
  <text x="590" y="300" fill="#191919" font-family="Inter, system-ui, -apple-system, Segoe UI, sans-serif" font-size="16" font-weight="600">Maya Lopez</text>
  <text x="590" y="325" fill="#6B5F55" font-family="Inter, system-ui, -apple-system, Segoe UI, sans-serif" font-size="12">Can we move Friday to 6:45?</text>
  <text x="900" y="300" fill="#6B5F55" font-family="Inter, system-ui, -apple-system, Segoe UI, sans-serif" font-size="11">Seen</text>
  <text x="590" y="465" fill="#191919" font-family="Inter, system-ui, -apple-system, Segoe UI, sans-serif" font-size="16" font-weight="600">You</text>
  <text x="590" y="490" fill="#6B5F55" font-family="Inter, system-ui, -apple-system, Segoe UI, sans-serif" font-size="12">Yes, 6:45 works.</text>
  <text x="590" y="580" fill="#6B5F55" font-family="Inter, system-ui, -apple-system, Segoe UI, sans-serif" font-size="11">Message Maya Lopez</text>
</svg>
