<svg width="1200" height="800" viewBox="0 0 1200 800" fill="none" xmlns="http://www.w3.org/2000/svg">
  <rect width="1200" height="800" rx="48" fill="#F6F2EE"/>
  <rect x="70" y="70" width="1060" height="90" rx="24" fill="#FFFFFF" stroke="#E5E0DA"/>
  <text x="110" y="125" fill="#191919" font-family="Inter, system-ui, -apple-system, Segoe UI, sans-serif" font-size="28" font-weight="600">Reports</text>

  <rect x="70" y="190" width="520" height="260" rx="28" fill="#FFFFFF" stroke="#E5E0DA"/>
  <rect x="610" y="190" width="520" height="260" rx="28" fill="#FFFFFF" stroke="#E5E0DA"/>
  <rect x="70" y="470" width="520" height="240" rx="28" fill="#FFFFFF" stroke="#E5E0DA"/>
  <rect x="610" y="470" width="520" height="240" rx="28" fill="#FFFFFF" stroke="#E5E0DA"/>

  <text x="110" y="235" fill="#6B5F55" font-family="Inter, system-ui, -apple-system, Segoe UI, sans-serif" font-size="14" letter-spacing="4">REVENUE</text>
  <rect x="110" y="260" width="440" height="52" rx="18" fill="#FFFFFF" stroke="#E5E0DA"/>
  <rect x="110" y="325" width="440" height="52" rx="18" fill="#FFFFFF" stroke="#E5E0DA"/>
  <text x="140" y="295" fill="#191919" font-family="Inter, system-ui, -apple-system, Segoe UI, sans-serif" font-size="16" font-weight="600">Gross revenue</text>
  <text x="470" y="295" fill="#191919" font-family="Inter, system-ui, -apple-system, Segoe UI, sans-serif" font-size="16" font-weight="600">$8,420</text>
  <text x="140" y="360" fill="#191919" font-family="Inter, system-ui, -apple-system, Segoe UI, sans-serif" font-size="16" font-weight="600">Net revenue</text>
  <text x="470" y="360" fill="#191919" font-family="Inter, system-ui, -apple-system, Segoe UI, sans-serif" font-size="16" font-weight="600">$7,398</text>

  <text x="650" y="235" fill="#6B5F55" font-family="Inter, system-ui, -apple-system, Segoe UI, sans-serif" font-size="14" letter-spacing="4">HEALTH</text>
  <rect x="650" y="260" width="440" height="52" rx="18" fill="#FFFFFF" stroke="#E5E0DA"/>
  <rect x="650" y="325" width="440" height="52" rx="18" fill="#FFFFFF" stroke="#E5E0DA"/>
  <text x="680" y="295" fill="#191919" font-family="Inter, system-ui, -apple-system, Segoe UI, sans-serif" font-size="16" font-weight="600">Attendance</text>
  <text x="1020" y="295" fill="#191919" font-family="Inter, system-ui, -apple-system, Segoe UI, sans-serif" font-size="16" font-weight="600">91%</text>
  <text x="680" y="360" fill="#191919" font-family="Inter, system-ui, -apple-system, Segoe UI, sans-serif" font-size="16" font-weight="600">Retention</text>
  <text x="1020" y="360" fill="#191919" font-family="Inter, system-ui, -apple-system, Segoe UI, sans-serif" font-size="16" font-weight="600">87%</text>
  <text x="680" y="385" fill="#6B5F55" font-family="Inter, system-ui, -apple-system, Segoe UI, sans-serif" font-size="11">Last 30 days</text>

  <text x="110" y="515" fill="#6B5F55" font-family="Inter, system-ui, -apple-system, Segoe UI, sans-serif" font-size="14" letter-spacing="4">TRENDS</text>
  <rect x="110" y="540" width="440" height="120" rx="20" fill="#F7F6F4" stroke="#E5E0DA"/>
  <rect x="150" y="590" width="40" height="50" rx="16" fill="#191919"/>
  <rect x="220" y="575" width="40" height="65" rx="16" fill="#191919"/>
  <rect x="290" y="600" width="40" height="40" rx="16" fill="#191919"/>
  <rect x="360" y="560" width="40" height="80" rx="16" fill="#191919"/>
  <rect x="430" y="585" width="40" height="55" rx="16" fill="#191919"/>
  <text x="150" y="665" fill="#6B5F55" font-family="Inter, system-ui, -apple-system, Segoe UI, sans-serif" font-size="10">Dec 22</text>
  <text x="230" y="665" fill="#6B5F55" font-family="Inter, system-ui, -apple-system, Segoe UI, sans-serif" font-size="10">Dec 29</text>
  <text x="300" y="665" fill="#6B5F55" font-family="Inter, system-ui, -apple-system, Segoe UI, sans-serif" font-size="10">Jan 5</text>
  <text x="370" y="665" fill="#6B5F55" font-family="Inter, system-ui, -apple-system, Segoe UI, sans-serif" font-size="10">Jan 12</text>
  <text x="440" y="665" fill="#6B5F55" font-family="Inter, system-ui, -apple-system, Segoe UI, sans-serif" font-size="10">Jan 19</text>

  <text x="650" y="515" fill="#6B5F55" font-family="Inter, system-ui, -apple-system, Segoe UI, sans-serif" font-size="14" letter-spacing="4">PAYOUTS</text>
  <rect x="650" y="540" width="440" height="52" rx="18" fill="#FFFFFF" stroke="#E5E0DA"/>
  <rect x="650" y="605" width="440" height="52" rx="18" fill="#FFFFFF" stroke="#E5E0DA"/>
  <text x="680" y="575" fill="#191919" font-family="Inter, system-ui, -apple-system, Segoe UI, sans-serif" font-size="16" font-weight="600">Jan 27</text>
  <text x="1020" y="575" fill="#191919" font-family="Inter, system-ui, -apple-system, Segoe UI, sans-serif" font-size="16" font-weight="600">$1,840</text>
  <text x="680" y="640" fill="#191919" font-family="Inter, system-ui, -apple-system, Segoe UI, sans-serif" font-size="16" font-weight="600">Feb 3</text>
  <text x="1020" y="640" fill="#191919" font-family="Inter, system-ui, -apple-system, Segoe UI, sans-serif" font-size="16" font-weight="600">$2,210</text>
</svg>
